<svg width="30" height="30" xmlns="http://www.w3.org/2000/svg" xmlns:xlink="http://www.w3.org/1999/xlink"><defs><linearGradient x1="32.52%" y1="32.769%" x2="147.332%" y2="161.35%" id="linearGradient-3"><stop stop-color="#4E2890" offset="0%"/><stop stop-color="#934B91" offset="100%"/></linearGradient><linearGradient x1="32.52%" y1="32.769%" x2="147.332%" y2="161.35%" id="linearGradient-4"><stop offset="0%"/><stop offset="100%"/></linearGradient><linearGradient x1="14.348%" y1="14.483%" x2="77.693%" y2="85.434%" id="linearGradient-7"><stop stop-color="#4E2890" offset="0%"/><stop stop-color="#934B91" offset="100%"/></linearGradient><linearGradient x1="14.348%" y1="14.483%" x2="77.693%" y2="85.434%" id="linearGradient-8"><stop offset="0%"/><stop offset="100%"/></linearGradient><linearGradient x1="-50.581%" y1="-50.21%" x2="128.118%" y2="149.984%" id="linearGradient-11"><stop stop-color="#4E2890" offset="0%"/><stop stop-color="#934B91" offset="100%"/></linearGradient><linearGradient x1="-50.581%" y1="-50.21%" x2="128.118%" y2="149.984%" id="linearGradient-12"><stop offset="0%"/><stop offset="100%"/></linearGradient><linearGradient x1="71.521%" y1="100%" x2="256.202%" y2="415.3%" id="linearGradient-15"><stop stop-color="#4E2890" offset="0%"/><stop stop-color="#934B91" offset="100%"/></linearGradient><linearGradient x1="71.521%" y1="100%" x2="256.202%" y2="415.3%" id="linearGradient-16"><stop offset="0%"/><stop offset="100%"/></linearGradient><linearGradient x1="100.001%" y1="71.521%" x2="381.507%" y2="278.385%" id="linearGradient-19"><stop stop-color="#4E2890" offset="0%"/><stop stop-color="#934B91" offset="100%"/></linearGradient><linearGradient x1="100.001%" y1="71.521%" x2="381.507%" y2="278.385%" id="linearGradient-20"><stop offset="0%"/><stop offset="100%"/></linearGradient><path d="M14.867 15.302a.43.43 0 0 1-.308-.128L.128.744A.436.436 0 1 1 .746.127l14.43 14.43a.437.437 0 0 1-.31.745Z" id="path-1"/><path d="M13.87.874C6.702.874.875 6.702.875 13.869c0 7.166 5.827 12.994 12.995 12.994 7.167 0 12.994-5.828 12.994-12.995C26.864 6.702 21.037.874 13.87.874Zm0 26.864C6.223 27.738 0 21.516 0 13.868 0 6.221 6.223 0 13.87 0c7.646 0 13.868 6.221 13.868 13.868 0 7.648-6.222 13.87-13.868 13.87Z" id="path-5"/><path d="M4.914.874A4.046 4.046 0 0 0 .873 4.915a4.046 4.046 0 0 0 4.041 4.042 4.046 4.046 0 0 0 4.042-4.042A4.046 4.046 0 0 0 4.914.874Zm0 8.957A4.92 4.92 0 0 1 0 4.915 4.92 4.92 0 0 1 4.914 0 4.92 4.92 0 0 1 9.83 4.915a4.92 4.92 0 0 1-4.915 4.916Z" id="path-9"/><path d="M3.657 6.242a.436.436 0 0 1-.436-.437V3.839L.874 1.492v1.092a.436.436 0 1 1-.874 0V.437A.437.437 0 0 1 .745.128l3.22 3.22c.084.083.13.195.13.309v2.148a.437.437 0 0 1-.438.437Z" id="path-13"/><path d="M3.658 4.095a.436.436 0 0 1-.31-.128L.129.744A.435.435 0 0 1 .034.27.433.433 0 0 1 .438 0H2.62a.437.437 0 0 1 0 .874H1.492L3.84 3.222h1.964a.437.437 0 1 1 0 .872l-2.146.001Z" id="path-17"/></defs><g id="Icon-/-App-/-CRM-Sales---Colour" stroke="none" stroke-width="1" fill="none" fill-rule="evenodd"><g id="Group-16"><g id="Group-3" transform="translate(1.265 1.228)"><mask id="mask-2" fill="#fff"><use xlink:href="#path-1"/></mask><path d="M14.867 15.302a.43.43 0 0 1-.308-.128L.128.744A.436.436 0 1 1 .746.127l14.43 14.43a.437.437 0 0 1-.31.745Z" id="Fill-1" fill="url('#linearGradient-4')" mask="url('#mask-2')"/></g><g id="Group-6" transform="translate(2.262 2.225)"><mask id="mask-6" fill="#fff"><use xlink:href="#path-5"/></mask><path d="M13.87.874C6.702.874.875 6.702.875 13.869c0 7.166 5.827 12.994 12.995 12.994 7.167 0 12.994-5.828 12.994-12.995C26.864 6.702 21.037.874 13.87.874Zm0 26.864C6.223 27.738 0 21.516 0 13.868 0 6.221 6.223 0 13.87 0c7.646 0 13.868 6.221 13.868 13.868 0 7.648-6.222 13.87-13.868 13.87Z" id="Fill-4" fill="url('#linearGradient-8')" mask="url('#mask-6')"/></g><g id="Group-9" transform="translate(11.217 11.178)"><mask id="mask-10" fill="#fff"><use xlink:href="#path-9"/></mask><path d="M4.914.874A4.046 4.046 0 0 0 .873 4.915a4.046 4.046 0 0 0 4.041 4.042 4.046 4.046 0 0 0 4.042-4.042A4.046 4.046 0 0 0 4.914.874Zm0 8.957A4.92 4.92 0 0 1 0 4.915 4.92 4.92 0 0 1 4.914 0 4.92 4.92 0 0 1 9.83 4.915a4.92 4.92 0 0 1-4.915 4.916Z" id="Fill-7" fill="url('#linearGradient-12')" mask="url('#mask-10')"/></g><g id="Group-12" transform="translate(2.147)"><mask id="mask-14" fill="#fff"><use xlink:href="#path-13"/></mask><path d="M3.657 6.242a.436.436 0 0 1-.436-.437V3.839L.874 1.492v1.092a.436.436 0 1 1-.874 0V.437A.437.437 0 0 1 .745.128l3.22 3.22c.084.083.13.195.13.309v2.148a.437.437 0 0 1-.438.437Z" id="Fill-10" fill="url('#linearGradient-16')" mask="url('#mask-14')"/></g><g id="Group-15" transform="translate(0 2.147)"><mask id="mask-18" fill="#fff"><use xlink:href="#path-17"/></mask><path d="M3.658 4.095a.436.436 0 0 1-.31-.128L.129.744A.435.435 0 0 1 .034.27.433.433 0 0 1 .438 0H2.62a.437.437 0 0 1 0 .874H1.492L3.84 3.222h1.964a.437.437 0 1 1 0 .872l-2.146.001Z" id="Fill-13" fill="url('#linearGradient-20')" mask="url('#mask-18')"/></g></g></g></svg>