<svg width="30" height="30" xmlns="http://www.w3.org/2000/svg" xmlns:xlink="http://www.w3.org/1999/xlink"><defs><linearGradient x1="63.567%" y1="12.817%" x2="37.733%" y2="76.964%" id="linearGradient-3"><stop stop-color="#4E2890" offset="0%"/><stop stop-color="#934B91" offset="100%"/></linearGradient><linearGradient x1="63.567%" y1="12.817%" x2="37.733%" y2="76.964%" id="linearGradient-4"><stop offset="0%"/><stop offset="100%"/></linearGradient><linearGradient x1="-47.883%" y1="-78.584%" x2="-168.674%" y2="241.279%" id="linearGradient-7"><stop stop-color="#4E2890" offset="0%"/><stop stop-color="#934B91" offset="100%"/></linearGradient><linearGradient x1="-47.883%" y1="-78.584%" x2="-168.674%" y2="241.279%" id="linearGradient-8"><stop offset="0%"/><stop offset="100%"/></linearGradient><linearGradient x1="137.216%" y1="-188.694%" x2="61.676%" y2="100%" id="linearGradient-11"><stop stop-color="#4E2890" offset="0%"/><stop stop-color="#934B91" offset="100%"/></linearGradient><linearGradient x1="137.216%" y1="-188.694%" x2="61.676%" y2="100%" id="linearGradient-12"><stop offset="0%"/><stop offset="100%"/></linearGradient><path d="m12.916 18.973-8.623 3.446c-.885.353-1.434-.335-1.549-.497L.773 16.987c-.032-.183-.151-1.158.743-1.515l8.624-3.446c3.143-1.257 7.164-5.51 8.674-10.458l7.63 19.092c-4.556-2.588-10.409-2.933-13.528-1.687Zm1.284 9.029-2.846 1.138c-1.085-2.533-2.937-4.981-5.057-6.715l2.758-1.101c2.121 1.641 4.06 4.16 5.145 6.678Zm13.25-6.133a.376.376 0 0 0 .113-.431L19.089.236a.375.375 0 0 0-.714.058c-1.149 5.174-5.314 9.756-8.514 11.035l-8.623 3.446C0 15.27-.084 16.557.044 17.169a.34.34 0 0 0 .019.063l2 5.005c.009.022.02.043.031.062.248.39.867.97 1.715.97.237 0 .492-.046.762-.154l.933-.372c2.256 1.74 4.23 4.352 5.297 7.022a.375.375 0 0 0 .487.208l3.543-1.415a.375.375 0 0 0 .21-.488c-1.062-2.655-2.976-5.255-5.183-7.067l3.336-1.333c3.17-1.268 9.352-.78 13.811 2.219a.376.376 0 0 0 .445-.02Z" id="path-1"/><path d="M1.736 4.098c-.033.014-.067.024-.101.034l-.006.002a.372.372 0 0 0-.246.467.377.377 0 0 0 .471.248c.054-.016.106-.033.16-.054a2.16 2.16 0 0 0 1.229-1.297 2.62 2.62 0 0 0-.046-1.87C2.685.348 1.32-.317.157.148.108.17.058.194 0 .222L.342.89c.03-.015.06-.03.093-.043.78-.313 1.707.164 2.066 1.06.176.442.19.917.037 1.336a1.42 1.42 0 0 1-.802.856Z" id="path-5"/><path d="M.723.236a.376.376 0 0 0-.696.278l1.855 4.641a.375.375 0 1 0 .696-.278L.723.236Z" id="path-9"/></defs><g id="Icon-/-App-/-Founder-MML---Colour" stroke="none" stroke-width="1" fill="none" fill-rule="evenodd"><g id="Group-10" transform="translate(1)"><g id="Group-3"><mask id="mask-2" fill="#fff"><use xlink:href="#path-1"/></mask><path d="m12.916 18.973-8.623 3.446c-.885.353-1.434-.335-1.549-.497L.773 16.987c-.032-.183-.151-1.158.743-1.515l8.624-3.446c3.143-1.257 7.164-5.51 8.674-10.458l7.63 19.092c-4.556-2.588-10.409-2.933-13.528-1.687Zm1.284 9.029-2.846 1.138c-1.085-2.533-2.937-4.981-5.057-6.715l2.758-1.101c2.121 1.641 4.06 4.16 5.145 6.678Zm13.25-6.133a.376.376 0 0 0 .113-.431L19.089.236a.375.375 0 0 0-.714.058c-1.149 5.174-5.314 9.756-8.514 11.035l-8.623 3.446C0 15.27-.084 16.557.044 17.169a.34.34 0 0 0 .019.063l2 5.005c.009.022.02.043.031.062.248.39.867.97 1.715.97.237 0 .492-.046.762-.154l.933-.372c2.256 1.74 4.23 4.352 5.297 7.022a.375.375 0 0 0 .487.208l3.543-1.415a.375.375 0 0 0 .21-.488c-1.062-2.655-2.976-5.255-5.183-7.067l3.336-1.333c3.17-1.268 9.352-.78 13.811 2.219a.376.376 0 0 0 .445-.02Z" id="Fill-1" fill="url('#linearGradient-4')" mask="url('#mask-2')"/></g><g id="Group-6" transform="translate(23.353 7.669)"><mask id="mask-6" fill="#fff"><use xlink:href="#path-5"/></mask><path d="M1.736 4.098c-.033.014-.067.024-.101.034l-.006.002a.372.372 0 0 0-.246.467.377.377 0 0 0 .471.248c.054-.016.106-.033.16-.054a2.16 2.16 0 0 0 1.229-1.297 2.62 2.62 0 0 0-.046-1.87C2.685.348 1.32-.317.157.148.108.17.058.194 0 .222L.342.89c.03-.015.06-.03.093-.043.78-.313 1.707.164 2.066 1.06.176.442.19.917.037 1.336a1.42 1.42 0 0 1-.802.856Z" id="Fill-4" fill="url('#linearGradient-8')" mask="url('#mask-6')"/></g><g id="Group-9" transform="translate(7.188 14.018)"><mask id="mask-10" fill="#fff"><use xlink:href="#path-9"/></mask><path d="M.723.236a.376.376 0 0 0-.696.278l1.855 4.641a.375.375 0 1 0 .696-.278L.723.236Z" id="Fill-7" fill="url('#linearGradient-12')" mask="url('#mask-10')"/></g></g></g></svg>