<svg width="30" height="30" xmlns="http://www.w3.org/2000/svg" xmlns:xlink="http://www.w3.org/1999/xlink"><defs><linearGradient x1="10.262%" y1="11.816%" x2="84.303%" y2="81.774%" id="linearGradient-3"><stop stop-color="#4E2890" offset="0%"/><stop stop-color="#934B91" offset="100%"/></linearGradient><linearGradient x1="10.262%" y1="11.816%" x2="84.303%" y2="81.774%" id="linearGradient-4"><stop offset="0%"/><stop offset="100%"/></linearGradient><linearGradient x1="112.739%" y1="15.627%" x2="173.877%" y2="185.598%" id="linearGradient-7"><stop stop-color="#4E2890" offset="0%"/><stop stop-color="#934B91" offset="100%"/></linearGradient><linearGradient x1="112.739%" y1="15.627%" x2="173.877%" y2="185.598%" id="linearGradient-8"><stop offset="0%"/><stop offset="100%"/></linearGradient><path d="M13.885 26.945c-7.066 0-12.838-5.637-13.056-12.65h13.056a.41.41 0 0 0 .41-.412V.83c7.012.218 12.649 5.99 12.649 13.053 0 7.203-5.86 13.062-13.059 13.062Zm0-26.945a.411.411 0 0 0-.413.412v13.06H.41a.41.41 0 0 0-.411.411C0 21.54 6.23 27.77 13.885 27.77c7.655 0 13.88-6.23 13.88-13.886C27.766 6.227 21.54 0 13.886 0Z" id="path-1"/><path d="M13.474 13.472H.83C1.043 6.598 6.597 1.044 13.474.83v12.642Zm.701.703a.412.412 0 0 0 .12-.29V.412a.41.41 0 0 0-.41-.413C6.227 0 0 6.228 0 13.884c0 .227.185.411.412.411h13.473c.11 0 .214-.042.29-.12Z" id="path-5"/></defs><g id="Icon-/-App-/-Founder-Insights---Colour" stroke="none" stroke-width="1" fill="none" fill-rule="evenodd"><g id="Group-7"><g id="Group-3" transform="translate(2.234 2.233)"><mask id="mask-2" fill="#fff"><use xlink:href="#path-1"/></mask><path d="M13.885 26.945c-7.066 0-12.838-5.637-13.056-12.65h13.056a.41.41 0 0 0 .41-.412V.83c7.012.218 12.649 5.99 12.649 13.053 0 7.203-5.86 13.062-13.059 13.062Zm0-26.945a.411.411 0 0 0-.413.412v13.06H.41a.41.41 0 0 0-.411.411C0 21.54 6.23 27.77 13.885 27.77c7.655 0 13.88-6.23 13.88-13.886C27.766 6.227 21.54 0 13.886 0Z" id="Fill-1" fill="url('#linearGradient-4')" mask="url('#mask-2')"/></g><g id="Group-6"><mask id="mask-6" fill="#fff"><use xlink:href="#path-5"/></mask><path d="M13.474 13.472H.83C1.043 6.598 6.597 1.044 13.474.83v12.642Zm.701.703a.412.412 0 0 0 .12-.29V.412a.41.41 0 0 0-.41-.413C6.227 0 0 6.228 0 13.884c0 .227.185.411.412.411h13.473c.11 0 .214-.042.29-.12Z" id="Fill-4" fill="url('#linearGradient-8')" mask="url('#mask-6')"/></g></g></g></svg>