<svg width="30" height="30" xmlns="http://www.w3.org/2000/svg" xmlns:xlink="http://www.w3.org/1999/xlink"><defs><linearGradient x1="50%" y1="0%" x2="50.069%" y2="100%" id="linearGradient-3"><stop stop-color="#4E2890" offset="0%"/><stop stop-color="#934B91" offset="100%"/></linearGradient><linearGradient x1="50%" y1="0%" x2="50.069%" y2="100%" id="linearGradient-4"><stop offset="0%"/><stop offset="100%"/></linearGradient><linearGradient x1="100%" y1="50%" x2="-.003%" y2="50%" id="linearGradient-7"><stop stop-color="#4E2890" offset="0%"/><stop stop-color="#934B91" offset="100%"/></linearGradient><linearGradient x1="100%" y1="50%" x2="-.003%" y2="50%" id="linearGradient-8"><stop offset="0%"/><stop offset="100%"/></linearGradient><linearGradient x1="100%" y1="49.999%" x2=".005%" y2="49.999%" id="linearGradient-11"><stop stop-color="#4E2890" offset="0%"/><stop stop-color="#934B91" offset="100%"/></linearGradient><linearGradient x1="100%" y1="49.999%" x2=".005%" y2="49.999%" id="linearGradient-12"><stop offset="0%"/><stop offset="100%"/></linearGradient><linearGradient x1="96.202%" y1="50%" x2=".01%" y2="50%" id="linearGradient-15"><stop stop-color="#4E2890" offset="0%"/><stop stop-color="#934B91" offset="100%"/></linearGradient><linearGradient x1="96.202%" y1="50%" x2=".01%" y2="50%" id="linearGradient-16"><stop offset="0%"/><stop offset="100%"/></linearGradient><path d="M.844 22.126V.241C.844.107.69 0 .5 0 .31 0 .156.107.156.241v21.885c0 .133.154.241.344.241.19 0 .344-.108.344-.24Z" id="path-1"/><path d="M.689.689h24.56v4.954H.69V.689ZM0 .344v5.643c0 .19.153.345.345.345h25.249a.344.344 0 0 0 .344-.344V.343A.345.345 0 0 0 25.594 0H.345A.344.344 0 0 0 0 .344Z" id="path-5"/><path d="M.688.688h16.146V5.64H.688V.688Zm-.344 5.64h16.834c.19 0 .345-.153.345-.343V.345A.344.344 0 0 0 17.178 0H.344A.344.344 0 0 0 0 .344v5.641c0 .19.154.343.344.343Z" id="path-9"/><path d="M.688.688h7.73v4.955H.687V.688ZM.344 6.33h8.418c.189 0 .345-.156.345-.345V.343A.345.345 0 0 0 8.762 0H.344A.344.344 0 0 0 0 .343v5.643c0 .19.154.345.344.345Z" id="path-13"/></defs><g id="Icon-/-App-/-Portfolio---Colour" stroke="none" stroke-width="1" fill="none" fill-rule="evenodd"><g id="Group-13" transform="translate(0 4)"><g id="Group-3"><mask id="mask-2" fill="#fff"><use xlink:href="#path-1"/></mask><path d="M.844 22.126V.241C.844.107.69 0 .5 0 .31 0 .156.107.156.241v21.885c0 .133.154.241.344.241.19 0 .344-.108.344-.24Z" id="Fill-1" fill="url('#linearGradient-4')" mask="url('#mask-2')"/></g><g id="Group-6" transform="translate(4.217 16.036)"><mask id="mask-6" fill="#fff"><use xlink:href="#path-5"/></mask><path d="M.689.689h24.56v4.954H.69V.689ZM0 .344v5.643c0 .19.153.345.345.345h25.249a.344.344 0 0 0 .344-.344V.343A.345.345 0 0 0 25.594 0H.345A.344.344 0 0 0 0 .344Z" id="Fill-4" fill="url('#linearGradient-8')" mask="url('#mask-6')"/></g><g id="Group-9" transform="translate(4.216)"><mask id="mask-10" fill="#fff"><use xlink:href="#path-9"/></mask><path d="M.688.688h16.146V5.64H.688V.688Zm-.344 5.64h16.834c.19 0 .345-.153.345-.343V.345A.344.344 0 0 0 17.178 0H.344A.344.344 0 0 0 0 .344v5.641c0 .19.154.343.344.343Z" id="Fill-7" fill="url('#linearGradient-12')" mask="url('#mask-10')"/></g><g id="Group-12" transform="translate(4.216 8.018)"><mask id="mask-14" fill="#fff"><use xlink:href="#path-13"/></mask><path d="M.688.688h7.73v4.955H.687V.688ZM.344 6.33h8.418c.189 0 .345-.156.345-.345V.343A.345.345 0 0 0 8.762 0H.344A.344.344 0 0 0 0 .343v5.643c0 .19.154.345.344.345Z" id="Fill-10" fill="url('#linearGradient-16')" mask="url('#mask-14')"/></g></g></g></svg>