<svg width="30" height="30" xmlns="http://www.w3.org/2000/svg" xmlns:xlink="http://www.w3.org/1999/xlink"><defs><linearGradient x1="54.456%" y1="0%" x2="55.59%" y2="100%" id="linearGradient-3"><stop stop-color="#4E2890" offset="0%"/><stop stop-color="#934B91" offset="100%"/></linearGradient><linearGradient x1="54.456%" y1="0%" x2="55.59%" y2="100%" id="linearGradient-4"><stop offset="0%"/><stop offset="100%"/></linearGradient><linearGradient x1="27.893%" y1="41.241%" x2="31.214%" y2="63.646%" id="linearGradient-7"><stop stop-color="#4E2890" offset="0%"/><stop stop-color="#934B91" offset="100%"/></linearGradient><linearGradient x1="27.893%" y1="41.241%" x2="31.214%" y2="63.646%" id="linearGradient-8"><stop offset="0%"/><stop offset="100%"/></linearGradient><linearGradient x1="27.893%" y1="37.222%" x2="31.214%" y2="59.627%" id="linearGradient-11"><stop stop-color="#4E2890" offset="0%"/><stop stop-color="#934B91" offset="100%"/></linearGradient><linearGradient x1="27.893%" y1="37.222%" x2="31.214%" y2="59.627%" id="linearGradient-12"><stop offset="0%"/><stop offset="100%"/></linearGradient><linearGradient x1="27.893%" y1="33.134%" x2="31.214%" y2="55.538%" id="linearGradient-15"><stop stop-color="#4E2890" offset="0%"/><stop stop-color="#934B91" offset="100%"/></linearGradient><linearGradient x1="27.893%" y1="33.134%" x2="31.214%" y2="55.538%" id="linearGradient-16"><stop offset="0%"/><stop offset="100%"/></linearGradient><linearGradient x1="237.855%" y1="-164.922%" x2="246.561%" y2="420.21%" id="linearGradient-19"><stop stop-color="#4E2890" offset="0%"/><stop stop-color="#934B91" offset="100%"/></linearGradient><linearGradient x1="237.855%" y1="-164.922%" x2="246.561%" y2="420.21%" id="linearGradient-20"><stop offset="0%"/><stop offset="100%"/></linearGradient><linearGradient x1="237.858%" y1="-283.791%" x2="246.565%" y2="301.367%" id="linearGradient-23"><stop stop-color="#4E2890" offset="0%"/><stop stop-color="#934B91" offset="100%"/></linearGradient><linearGradient x1="237.858%" y1="-283.791%" x2="246.565%" y2="301.367%" id="linearGradient-24"><stop offset="0%"/><stop offset="100%"/></linearGradient><linearGradient x1="237.858%" y1="-390.142%" x2="246.565%" y2="194.643%" id="linearGradient-27"><stop stop-color="#4E2890" offset="0%"/><stop stop-color="#934B91" offset="100%"/></linearGradient><linearGradient x1="237.858%" y1="-390.142%" x2="246.565%" y2="194.643%" id="linearGradient-28"><stop offset="0%"/><stop offset="100%"/></linearGradient><path d="M25.62 29.072H.939V4.64h7.483V6.15c0 .262.206.469.466.469h9.237c.26 0 .468-.207.468-.469V4.612c.037.01.074.029.116.029h6.913v24.43ZM9.358 4.144h8.297V5.68H9.357V4.144ZM11.51.937h3.99v2.27h-3.99V.936Zm14.58 2.766h-7.381c-.042 0-.079.01-.116.019v-.047a.471.471 0 0 0-.468-.469h-1.687V.478A.474.474 0 0 0 15.97 0H11.04a.474.474 0 0 0-.468.478v2.728H8.888a.47.47 0 0 0-.467.469v.028H.469A.467.467 0 0 0 0 4.172v25.36c0 .262.21.468.469.468h25.62c.26 0 .469-.206.469-.469V4.171a.465.465 0 0 0-.468-.468Z" id="path-1"/><path d="M0 .5c0 .253.21.469.468.469h10.635c.26 0 .469-.216.469-.469a.466.466 0 0 0-.47-.469H.469A.466.466 0 0 0 0 .5Z" id="path-5"/><path d="M11.103.031H.468A.466.466 0 0 0 0 .5c0 .263.21.469.468.469h10.635c.26 0 .469-.206.469-.469a.466.466 0 0 0-.47-.469Z" id="path-9"/><path d="M11.103.031H.468A.466.466 0 0 0 0 .5c0 .253.21.469.468.469h10.635c.26 0 .469-.216.469-.469a.466.466 0 0 0-.47-.469Z" id="path-13"/><path d="m3.613.134-2.47 2.475-.292-.413a.468.468 0 1 0-.763.544l.614.862c.011.02.029.02.04.028.007.01.004.02.01.029.01.009.025.009.036.018a.5.5 0 0 0 .296.122c.095 0 .19-.028.272-.094a.127.127 0 0 0 .037-.037c.006 0 .017 0 .023-.01L4.276.8a.471.471 0 0 0 0-.665.478.478 0 0 0-.663 0Z" id="path-17"/><path d="m3.613.134-2.47 2.475-.292-.413a.47.47 0 1 0-.763.544l.613.862c.011.02.029.02.041.038.007 0 .003.01.01.019.01.01.026.01.036.018a.502.502 0 0 0 .296.122.428.428 0 0 0 .31-.13c.007-.001.016-.001.022-.01l2.86-2.86a.47.47 0 0 0 0-.665.478.478 0 0 0-.663 0Z" id="path-21"/><path d="M3.613.14 1.144 2.607l-.293-.412a.472.472 0 0 0-.763.553L.7 3.6c.011.019.029.028.041.038.007.009.003.018.01.028.01.009.026.009.036.009a.45.45 0 0 0 .568.038c.016-.01.025-.029.04-.038.005-.01.014 0 .02-.01L4.276.807a.47.47 0 0 0 0-.665.46.46 0 0 0-.663 0Z" id="path-25"/></defs><g id="Icon-/-App-/-Industry-Survey---Colour" stroke="none" stroke-width="1" fill="none" fill-rule="evenodd"><g id="Group-22" transform="translate(2)"><g id="Group-3"><mask id="mask-2" fill="#fff"><use xlink:href="#path-1"/></mask><path d="M25.62 29.072H.939V4.64h7.483V6.15c0 .262.206.469.466.469h9.237c.26 0 .468-.207.468-.469V4.612c.037.01.074.029.116.029h6.913v24.43ZM9.358 4.144h8.297V5.68H9.357V4.144ZM11.51.937h3.99v2.27h-3.99V.936Zm14.58 2.766h-7.381c-.042 0-.079.01-.116.019v-.047a.471.471 0 0 0-.468-.469h-1.687V.478A.474.474 0 0 0 15.97 0H11.04a.474.474 0 0 0-.468.478v2.728H8.888a.47.47 0 0 0-.467.469v.028H.469A.467.467 0 0 0 0 4.172v25.36c0 .262.21.468.469.468h25.62c.26 0 .469-.206.469-.469V4.171a.465.465 0 0 0-.468-.468Z" id="Fill-1" fill="url('#linearGradient-4')" mask="url('#mask-2')"/></g><g id="Group-6" transform="translate(11.561 11.228)"><mask id="mask-6" fill="#fff"><use xlink:href="#path-5"/></mask><path d="M0 .5c0 .253.21.469.468.469h10.635c.26 0 .469-.216.469-.469a.466.466 0 0 0-.47-.469H.469A.466.466 0 0 0 0 .5Z" id="Fill-4" fill="url('#linearGradient-8')" mask="url('#mask-6')"/></g><g id="Group-9" transform="translate(11.561 16.61)"><mask id="mask-10" fill="#fff"><use xlink:href="#path-9"/></mask><path d="M11.103.031H.468A.466.466 0 0 0 0 .5c0 .263.21.469.468.469h10.635c.26 0 .469-.206.469-.469a.466.466 0 0 0-.47-.469Z" id="Fill-7" fill="url('#linearGradient-12')" mask="url('#mask-10')"/></g><g id="Group-12" transform="translate(11.561 22.084)"><mask id="mask-14" fill="#fff"><use xlink:href="#path-13"/></mask><path d="M11.103.031H.468A.466.466 0 0 0 0 .5c0 .253.21.469.468.469h10.635c.26 0 .469-.216.469-.469a.466.466 0 0 0-.47-.469Z" id="Fill-10" fill="url('#linearGradient-16')" mask="url('#mask-14')"/></g><g id="Group-15" transform="translate(4.291 9.12)"><mask id="mask-18" fill="#fff"><use xlink:href="#path-17"/></mask><path d="m3.613.134-2.47 2.475-.292-.413a.468.468 0 1 0-.763.544l.614.862c.011.02.029.02.04.028.007.01.004.02.01.029.01.009.025.009.036.018a.5.5 0 0 0 .296.122c.095 0 .19-.028.272-.094a.127.127 0 0 0 .037-.037c.006 0 .017 0 .023-.01L4.276.8a.471.471 0 0 0 0-.665.478.478 0 0 0-.663 0Z" id="Fill-13" fill="url('#linearGradient-20')" mask="url('#mask-18')"/></g><g id="Group-18" transform="translate(4.291 15.213)"><mask id="mask-22" fill="#fff"><use xlink:href="#path-21"/></mask><path d="m3.613.134-2.47 2.475-.292-.413a.47.47 0 1 0-.763.544l.613.862c.011.02.029.02.041.038.007 0 .003.01.01.019.01.01.026.01.036.018a.502.502 0 0 0 .296.122.428.428 0 0 0 .31-.13c.007-.001.016-.001.022-.01l2.86-2.86a.47.47 0 0 0 0-.665.478.478 0 0 0-.663 0Z" id="Fill-16" fill="url('#linearGradient-24')" mask="url('#mask-22')"/></g><g id="Group-21" transform="translate(4.291 20.681)"><mask id="mask-26" fill="#fff"><use xlink:href="#path-25"/></mask><path d="M3.613.14 1.144 2.607l-.293-.412a.472.472 0 0 0-.763.553L.7 3.6c.011.019.029.028.041.038.007.009.003.018.01.028.01.009.026.009.036.009a.45.45 0 0 0 .568.038c.016-.01.025-.029.04-.038.005-.01.014 0 .02-.01L4.276.807a.47.47 0 0 0 0-.665.46.46 0 0 0-.663 0Z" id="Fill-19" fill="url('#linearGradient-28')" mask="url('#mask-26')"/></g></g></g></svg>