<svg width="30" height="30" xmlns="http://www.w3.org/2000/svg" xmlns:xlink="http://www.w3.org/1999/xlink"><defs><linearGradient x1="79.046%" y1="3.889%" x2="20.947%" y2="79.143%" id="linearGradient-3"><stop stop-color="#4E2890" offset="0%"/><stop stop-color="#934B91" offset="100%"/></linearGradient><linearGradient x1="79.046%" y1="3.889%" x2="20.947%" y2="79.143%" id="linearGradient-4"><stop offset="0%"/><stop offset="100%"/></linearGradient><linearGradient x1="50.969%" y1="3.87%" x2="49.031%" y2="79.154%" id="linearGradient-7"><stop stop-color="#4E2890" offset="0%"/><stop stop-color="#934B91" offset="100%"/></linearGradient><linearGradient x1="50.969%" y1="3.87%" x2="49.031%" y2="79.154%" id="linearGradient-8"><stop offset="0%"/><stop offset="100%"/></linearGradient><linearGradient x1="58.207%" y1="0%" x2="48.911%" y2="81.596%" id="linearGradient-11"><stop stop-color="#4E2890" offset="0%"/><stop stop-color="#934B91" offset="100%"/></linearGradient><linearGradient x1="58.207%" y1="0%" x2="48.911%" y2="81.596%" id="linearGradient-12"><stop offset="0%"/><stop offset="100%"/></linearGradient><linearGradient x1="51.089%" y1="0%" x2="41.793%" y2="81.596%" id="linearGradient-15"><stop stop-color="#4E2890" offset="0%"/><stop stop-color="#934B91" offset="100%"/></linearGradient><linearGradient x1="51.089%" y1="0%" x2="41.793%" y2="81.596%" id="linearGradient-16"><stop offset="0%"/><stop offset="100%"/></linearGradient><linearGradient x1="81.491%" y1="46.165%" x2="18.505%" y2="58.206%" id="linearGradient-19"><stop stop-color="#4E2890" offset="0%"/><stop stop-color="#934B91" offset="100%"/></linearGradient><linearGradient x1="81.491%" y1="46.165%" x2="18.505%" y2="58.206%" id="linearGradient-20"><stop offset="0%"/><stop offset="100%"/></linearGradient><linearGradient x1="81.491%" y1="39.045%" x2="18.505%" y2="51.089%" id="linearGradient-23"><stop stop-color="#4E2890" offset="0%"/><stop stop-color="#934B91" offset="100%"/></linearGradient><linearGradient x1="81.491%" y1="39.045%" x2="18.505%" y2="51.089%" id="linearGradient-24"><stop offset="0%"/><stop offset="100%"/></linearGradient><path d="M14.999.832C7.186.832.83 7.184.83 15.002c0 7.808 6.356 14.17 14.169 14.17 7.815 0 14.173-6.362 14.173-14.17 0-7.818-6.358-14.17-14.173-14.17Zm0 29.162C6.729 29.994 0 23.266 0 15.002 0 6.728 6.729 0 14.999 0 23.271 0 30 6.728 30 15.002c0 8.264-6.73 14.992-15.001 14.992Z" id="path-1"/><path d="M.499 29.994a.408.408 0 0 1-.414-.406V.416C.085.188.27 0 .499 0c.23 0 .416.188.416.416v29.172a.41.41 0 0 1-.416.406Z" id="path-5"/><path d="M3.67 27.674a.417.417 0 0 1-.366-.218c-7.4-13.882-.07-27.11.006-27.24a.403.403 0 0 1 .564-.158c.198.109.27.367.155.565-.071.129-7.174 12.97.006 26.447a.408.408 0 0 1-.17.554.454.454 0 0 1-.196.05Z" id="path-9"/><path d="M.415 27.674a.465.465 0 0 1-.196-.05.408.408 0 0 1-.17-.554C7.23 13.593.127.752.054.623A.413.413 0 0 1 .21.058a.403.403 0 0 1 .565.159C.85.345 8.18 13.574.78 27.456a.417.417 0 0 1-.366.218Z" id="path-13"/><path d="M.414 4.083a.417.417 0 0 1-.366-.218.418.418 0 0 1 .173-.565c13.883-7.392 27.11-.069 27.241.01.2.11.269.367.157.565a.407.407 0 0 1-.565.149c-.13-.07-12.973-7.164-26.445.01a.453.453 0 0 1-.195.05Z" id="path-17"/><path d="M13.48 4.084c-4.036 0-8.61-.822-13.26-3.3A.42.42 0 0 1 .049.22.416.416 0 0 1 .61.051c13.47 7.174 26.317.08 26.445 0a.415.415 0 0 1 .408.723c-.087.05-5.969 3.31-13.982 3.31Z" id="path-21"/></defs><g id="Icon-/-App-/-Big-Problem---Colour" stroke="none" stroke-width="1" fill="none" fill-rule="evenodd"><g id="Group-19"><g id="Group-3"><mask id="mask-2" fill="#fff"><use xlink:href="#path-1"/></mask><path d="M14.999.832C7.186.832.83 7.184.83 15.002c0 7.808 6.356 14.17 14.169 14.17 7.815 0 14.173-6.362 14.173-14.17 0-7.818-6.358-14.17-14.173-14.17Zm0 29.162C6.729 29.994 0 23.266 0 15.002 0 6.728 6.729 0 14.999 0 23.271 0 30 6.728 30 15.002c0 8.264-6.73 14.992-15.001 14.992Z" id="Fill-1" fill="url('#linearGradient-4')" mask="url('#mask-2')"/></g><g id="Group-6" transform="translate(14.5)"><mask id="mask-6" fill="#fff"><use xlink:href="#path-5"/></mask><path d="M.499 29.994a.408.408 0 0 1-.414-.406V.416C.085.188.27 0 .499 0c.23 0 .416.188.416.416v29.172a.41.41 0 0 1-.416.406Z" id="Fill-4" fill="url('#linearGradient-8')" mask="url('#mask-6')"/></g><g id="Group-9" transform="translate(6.284 1.16)"><mask id="mask-10" fill="#fff"><use xlink:href="#path-9"/></mask><path d="M3.67 27.674a.417.417 0 0 1-.366-.218c-7.4-13.882-.07-27.11.006-27.24a.403.403 0 0 1 .564-.158c.198.109.27.367.155.565-.071.129-7.174 12.97.006 26.447a.408.408 0 0 1-.17.554.454.454 0 0 1-.196.05Z" id="Fill-7" fill="url('#linearGradient-12')" mask="url('#mask-10')"/></g><g id="Group-12" transform="translate(19.63 1.16)"><mask id="mask-14" fill="#fff"><use xlink:href="#path-13"/></mask><path d="M.415 27.674a.465.465 0 0 1-.196-.05.408.408 0 0 1-.17-.554C7.23 13.593.127.752.054.623A.413.413 0 0 1 .21.058a.403.403 0 0 1 .565.159C.85.345 8.18 13.574.78 27.456a.417.417 0 0 1-.366.218Z" id="Fill-10" fill="url('#linearGradient-16')" mask="url('#mask-14')"/></g><g id="Group-15" transform="translate(1.163 6.311)"><mask id="mask-18" fill="#fff"><use xlink:href="#path-17"/></mask><path d="M.414 4.083a.417.417 0 0 1-.366-.218.418.418 0 0 1 .173-.565c13.883-7.392 27.11-.069 27.241.01.2.11.269.367.157.565a.407.407 0 0 1-.565.149c-.13-.07-12.973-7.164-26.445.01a.453.453 0 0 1-.195.05Z" id="Fill-13" fill="url('#linearGradient-20')" mask="url('#mask-18')"/></g><g id="Group-18" transform="translate(1.163 19.657)"><mask id="mask-22" fill="#fff"><use xlink:href="#path-21"/></mask><path d="M13.48 4.084c-4.036 0-8.61-.822-13.26-3.3A.42.42 0 0 1 .049.22.416.416 0 0 1 .61.051c13.47 7.174 26.317.08 26.445 0a.415.415 0 0 1 .408.723c-.087.05-5.969 3.31-13.982 3.31Z" id="Fill-16" fill="url('#linearGradient-24')" mask="url('#mask-22')"/></g></g></g></svg>