<svg width="30" height="30" xmlns="http://www.w3.org/2000/svg" xmlns:xlink="http://www.w3.org/1999/xlink"><defs><linearGradient x1="63.583%" y1="16.988%" x2="29.921%" y2="100%" id="linearGradient-3"><stop stop-color="#4E2890" offset="0%"/><stop stop-color="#934B91" offset="100%"/></linearGradient><linearGradient x1="63.583%" y1="16.988%" x2="29.921%" y2="100%" id="linearGradient-4"><stop offset="0%"/><stop offset="100%"/></linearGradient><path d="M19.987 26.938a3.854 3.854 0 0 1-3.181-1.683l2.42-.826a.515.515 0 0 0 .32-.65.52.52 0 0 0-.652-.322l-2.54.868a3.819 3.819 0 0 1-.223-1.241 3.861 3.861 0 0 1 3.856-3.854 3.858 3.858 0 0 1 3.855 3.854 3.858 3.858 0 0 1-3.855 3.854ZM6.743 28.974c-.84 0-1.523-.682-1.523-1.521 0-.84.683-1.524 1.523-1.524.839 0 1.523.684 1.523 1.524 0 .839-.684 1.521-1.523 1.521ZM4.881 17.83a3.86 3.86 0 0 1-3.855-3.856A3.86 3.86 0 0 1 4.88 10.12a3.857 3.857 0 0 1 3.855 3.854c0 .656-.18 1.264-.468 1.808L6.136 14.6a.514.514 0 0 0-.498.897l2.032 1.124a3.83 3.83 0 0 1-2.79 1.208ZM16.13 4.883a3.86 3.86 0 0 1 3.856-3.856 3.858 3.858 0 0 1 3.855 3.856 3.858 3.858 0 0 1-3.855 3.855 3.823 3.823 0 0 1-2.99-1.455l2.329-1.404a.512.512 0 1 0-.531-.876l-2.342 1.411a3.817 3.817 0 0 1-.321-1.53Zm3.856 13.32c-1.578 0-2.969.765-3.862 1.929l-6.966-3.858a4.815 4.815 0 0 0 .603-2.3c0-.732-.172-1.423-.466-2.048l6.815-4.107c.892 1.172 2.291 1.944 3.876 1.944a4.887 4.887 0 0 0 4.883-4.88A4.888 4.888 0 0 0 19.987 0a4.888 4.888 0 0 0-4.883 4.883c0 .738.177 1.432.474 2.058l-6.813 4.11C7.873 9.868 6.47 9.094 4.88 9.094A4.885 4.885 0 0 0 0 13.975a4.886 4.886 0 0 0 4.88 4.88c1.487 0 2.802-.68 3.698-1.73l7.008 3.883a4.81 4.81 0 0 0-.482 2.076c0 .553.113 1.074.283 1.57l-6.2 2.116a2.545 2.545 0 0 0-2.444-1.866 2.551 2.551 0 0 0-2.549 2.549A2.55 2.55 0 0 0 6.744 30a2.544 2.544 0 0 0 2.51-2.166l6.565-2.24c.857 1.413 2.396 2.372 4.168 2.372a4.888 4.888 0 0 0 4.883-4.882 4.888 4.888 0 0 0-4.883-4.881Z" id="path-1"/></defs><g id="Icon-/-App-/-MarketLab---Colour" stroke="none" stroke-width="1" fill="none" fill-rule="evenodd"><g id="Group-3" transform="translate(3)"><mask id="mask-2" fill="#fff"><use xlink:href="#path-1"/></mask><path d="M19.987 26.938a3.854 3.854 0 0 1-3.181-1.683l2.42-.826a.515.515 0 0 0 .32-.65.52.52 0 0 0-.652-.322l-2.54.868a3.819 3.819 0 0 1-.223-1.241 3.861 3.861 0 0 1 3.856-3.854 3.858 3.858 0 0 1 3.855 3.854 3.858 3.858 0 0 1-3.855 3.854ZM6.743 28.974c-.84 0-1.523-.682-1.523-1.521 0-.84.683-1.524 1.523-1.524.839 0 1.523.684 1.523 1.524 0 .839-.684 1.521-1.523 1.521ZM4.881 17.83a3.86 3.86 0 0 1-3.855-3.856A3.86 3.86 0 0 1 4.88 10.12a3.857 3.857 0 0 1 3.855 3.854c0 .656-.18 1.264-.468 1.808L6.136 14.6a.514.514 0 0 0-.498.897l2.032 1.124a3.83 3.83 0 0 1-2.79 1.208ZM16.13 4.883a3.86 3.86 0 0 1 3.856-3.856 3.858 3.858 0 0 1 3.855 3.856 3.858 3.858 0 0 1-3.855 3.855 3.823 3.823 0 0 1-2.99-1.455l2.329-1.404a.512.512 0 1 0-.531-.876l-2.342 1.411a3.817 3.817 0 0 1-.321-1.53Zm3.856 13.32c-1.578 0-2.969.765-3.862 1.929l-6.966-3.858a4.815 4.815 0 0 0 .603-2.3c0-.732-.172-1.423-.466-2.048l6.815-4.107c.892 1.172 2.291 1.944 3.876 1.944a4.887 4.887 0 0 0 4.883-4.88A4.888 4.888 0 0 0 19.987 0a4.888 4.888 0 0 0-4.883 4.883c0 .738.177 1.432.474 2.058l-6.813 4.11C7.873 9.868 6.47 9.094 4.88 9.094A4.885 4.885 0 0 0 0 13.975a4.886 4.886 0 0 0 4.88 4.88c1.487 0 2.802-.68 3.698-1.73l7.008 3.883a4.81 4.81 0 0 0-.482 2.076c0 .553.113 1.074.283 1.57l-6.2 2.116a2.545 2.545 0 0 0-2.444-1.866 2.551 2.551 0 0 0-2.549 2.549A2.55 2.55 0 0 0 6.744 30a2.544 2.544 0 0 0 2.51-2.166l6.565-2.24c.857 1.413 2.396 2.372 4.168 2.372a4.888 4.888 0 0 0 4.883-4.882 4.888 4.888 0 0 0-4.883-4.881Z" id="Fill-1" fill="url('#linearGradient-4')" mask="url('#mask-2')"/></g></g></svg>