<svg width="30" height="30" xmlns="http://www.w3.org/2000/svg" xmlns:xlink="http://www.w3.org/1999/xlink"><defs><linearGradient x1="59.905%" y1="35.4%" x2="86.014%" y2="78.443%" id="linearGradient-3"><stop stop-color="#4E2890" offset="0%"/><stop stop-color="#934B91" offset="100%"/></linearGradient><linearGradient x1="59.905%" y1="35.4%" x2="86.014%" y2="78.443%" id="linearGradient-4"><stop offset="0%"/><stop offset="100%"/></linearGradient><linearGradient x1="65.892%" y1="37.538%" x2="12.49%" y2="79.976%" id="linearGradient-7"><stop stop-color="#4E2890" offset="0%"/><stop stop-color="#934B91" offset="100%"/></linearGradient><linearGradient x1="65.892%" y1="37.538%" x2="12.49%" y2="79.976%" id="linearGradient-8"><stop offset="0%"/><stop offset="100%"/></linearGradient><path d="M15.721.06a.36.36 0 1 0-.398.6c1.938 1.286 3.049 3.118 3.049 5.026 0 1.865-1.02 3.606-2.868 4.9a.355.355 0 0 0-.115.449l.615 2.057-1.856-1.399a.363.363 0 0 0-.435-.126c-1.391.586-2.976.896-4.581.896-3.662 0-6.984-1.593-8.463-4.057a.36.36 0 1 0-.618.37c1.607 2.677 5.171 4.407 9.08 4.407 1.62 0 3.223-.299 4.65-.866l2.666 2.01a.36.36 0 0 0 .56-.39l-.871-2.919c1.882-1.402 2.956-3.332 2.956-5.332 0-2.154-1.23-4.204-3.37-5.625Z" id="path-1"/><path d="M12.518.72c6.504 0 11.797 3.893 11.797 8.678 0 2.298-1.213 4.465-3.416 6.102-2.234 1.661-5.21 2.576-8.38 2.576h-.002c-2.046 0-4.066-.394-5.84-1.141a.346.346 0 0 0-.412.115l-2.626 1.98.857-2.868a.36.36 0 0 0-.103-.48C2.025 14.024.72 11.792.72 9.398.72 4.613 6.012.72 12.517.72Zm-8.76 15.393-1.123 3.761a.36.36 0 0 0 .56.39l3.42-2.577c1.808.726 3.843 1.11 5.902 1.11h.001c3.324 0 6.453-.966 8.811-2.72 2.39-1.775 3.706-4.148 3.706-6.679C25.035 4.216 19.42 0 12.517 0 5.615 0 0 4.216 0 9.398c0 2.521 1.366 4.955 3.759 6.715Z" id="path-5"/></defs><g id="Icon-/-App-/-Messaging-2---Colour" stroke="none" stroke-width="1" fill="none" fill-rule="evenodd"><g id="Group-7" transform="translate(0 2)"><g id="Group-3" transform="translate(10.908 12.207)"><mask id="mask-2" fill="#fff"><use xlink:href="#path-1"/></mask><path d="M15.721.06a.36.36 0 1 0-.398.6c1.938 1.286 3.049 3.118 3.049 5.026 0 1.865-1.02 3.606-2.868 4.9a.355.355 0 0 0-.115.449l.615 2.057-1.856-1.399a.363.363 0 0 0-.435-.126c-1.391.586-2.976.896-4.581.896-3.662 0-6.984-1.593-8.463-4.057a.36.36 0 1 0-.618.37c1.607 2.677 5.171 4.407 9.08 4.407 1.62 0 3.223-.299 4.65-.866l2.666 2.01a.36.36 0 0 0 .56-.39l-.871-2.919c1.882-1.402 2.956-3.332 2.956-5.332 0-2.154-1.23-4.204-3.37-5.625Z" id="Fill-1" fill="url('#linearGradient-4')" mask="url('#mask-2')"/></g><g id="Group-6"><mask id="mask-6" fill="#fff"><use xlink:href="#path-5"/></mask><path d="M12.518.72c6.504 0 11.797 3.893 11.797 8.678 0 2.298-1.213 4.465-3.416 6.102-2.234 1.661-5.21 2.576-8.38 2.576h-.002c-2.046 0-4.066-.394-5.84-1.141a.346.346 0 0 0-.412.115l-2.626 1.98.857-2.868a.36.36 0 0 0-.103-.48C2.025 14.024.72 11.792.72 9.398.72 4.613 6.012.72 12.517.72Zm-8.76 15.393-1.123 3.761a.36.36 0 0 0 .56.39l3.42-2.577c1.808.726 3.843 1.11 5.902 1.11h.001c3.324 0 6.453-.966 8.811-2.72 2.39-1.775 3.706-4.148 3.706-6.679C25.035 4.216 19.42 0 12.517 0 5.615 0 0 4.216 0 9.398c0 2.521 1.366 4.955 3.759 6.715Z" id="Fill-4" fill="url('#linearGradient-8')" mask="url('#mask-6')"/></g></g></g></svg>