<svg width="30" height="30" xmlns="http://www.w3.org/2000/svg" xmlns:xlink="http://www.w3.org/1999/xlink"><defs><linearGradient x1="66.444%" y1="1.811%" x2="25.169%" y2="99.761%" id="linearGradient-3"><stop stop-color="#4E2890" offset="0%"/><stop stop-color="#934B91" offset="100%"/></linearGradient><linearGradient x1="66.444%" y1="1.811%" x2="25.169%" y2="99.761%" id="linearGradient-4"><stop offset="0%"/><stop offset="100%"/></linearGradient><linearGradient x1="50.002%" y1="49.995%" x2="-91.343%" y2="200.018%" id="linearGradient-7"><stop stop-color="#4E2890" offset="0%"/><stop stop-color="#934B91" offset="100%"/></linearGradient><linearGradient x1="50.002%" y1="49.995%" x2="-91.343%" y2="200.018%" id="linearGradient-8"><stop offset="0%"/><stop offset="100%"/></linearGradient><linearGradient x1="175.747%" y1="-167.75%" x2="-123.606%" y2="350.523%" id="linearGradient-11"><stop stop-color="#4E2890" offset="0%"/><stop stop-color="#934B91" offset="100%"/></linearGradient><linearGradient x1="175.747%" y1="-167.75%" x2="-123.606%" y2="350.523%" id="linearGradient-12"><stop offset="0%"/><stop offset="100%"/></linearGradient><linearGradient x1="98.499%" y1="-88.999%" x2="32.732%" y2="99.508%" id="linearGradient-15"><stop stop-color="#4E2890" offset="0%"/><stop stop-color="#934B91" offset="100%"/></linearGradient><linearGradient x1="98.499%" y1="-88.999%" x2="32.732%" y2="99.508%" id="linearGradient-16"><stop offset="0%"/><stop offset="100%"/></linearGradient><path d="M18.193 6.212 9.073.946.872 6.387l.403 18.593 16.305-8.946.613-9.822ZM9.277.058l9.585 5.533a.433.433 0 0 1 .214.406L18.43 16.33a.425.425 0 0 1-.223.348l-17.14 9.406c-.267.148-.636-.065-.641-.371L0 6.166A.425.425 0 0 1 .192 5.8L8.818.074a.436.436 0 0 1 .46-.016Z" id="path-1"/><path d="M.654.058 10.24 5.59a.435.435 0 0 1-.436.756L.218.813A.437.437 0 0 1 .654.058Z" id="path-5"/><path d="M1.664 3.854c.766.442 1.75.177 2.19-.587a1.607 1.607 0 0 0-.587-2.19 1.607 1.607 0 0 0-2.188.588 1.607 1.607 0 0 0 .585 2.189ZM3.698.33A2.47 2.47 0 0 1 4.606 3.7 2.468 2.468 0 0 1 .33 1.232 2.468 2.468 0 0 1 3.698.33Z" id="path-9"/><path d="M7.989.057c.209.12.279.388.162.591L.81 13.363a.43.43 0 0 1-.593.155.428.428 0 0 1-.158-.589L7.399.215a.434.434 0 0 1 .59-.158Z" id="path-13"/></defs><g id="Icon-/-App-/-Jotting---Colour" stroke="none" stroke-width="1" fill="none" fill-rule="evenodd"><g id="Group-13" transform="translate(5 1)"><g id="Group-3" transform="translate(0 2.728)"><mask id="mask-2" fill="#fff"><use xlink:href="#path-1"/></mask><path d="M18.193 6.212 9.073.946.872 6.387l.403 18.593 16.305-8.946.613-9.822ZM9.277.058l9.585 5.533a.433.433 0 0 1 .214.406L18.43 16.33a.425.425 0 0 1-.223.348l-17.14 9.406c-.267.148-.636-.065-.641-.371L0 6.166A.425.425 0 0 1 .192 5.8L8.818.074a.436.436 0 0 1 .46-.016Z" id="Fill-1" fill="url('#linearGradient-4')" mask="url('#mask-2')"/></g><g id="Group-6" transform="translate(10.198)"><mask id="mask-6" fill="#fff"><use xlink:href="#path-5"/></mask><path d="M.654.058 10.24 5.59a.435.435 0 0 1-.436.756L.218.813A.437.437 0 0 1 .654.058Z" id="Fill-4" fill="url('#linearGradient-8')" mask="url('#mask-6')"/></g><g id="Group-9" transform="translate(6.75 11.49)"><mask id="mask-10" fill="#fff"><use xlink:href="#path-9"/></mask><path d="M1.664 3.854c.766.442 1.75.177 2.19-.587a1.607 1.607 0 0 0-.587-2.19 1.607 1.607 0 0 0-2.188.588 1.607 1.607 0 0 0 .585 2.189ZM3.698.33A2.47 2.47 0 0 1 4.606 3.7 2.468 2.468 0 0 1 .33 1.232 2.468 2.468 0 0 1 3.698.33Z" id="Fill-7" fill="url('#linearGradient-12')" mask="url('#mask-10')"/></g><g id="Group-12" transform="translate(.426 15.286)"><mask id="mask-14" fill="#fff"><use xlink:href="#path-13"/></mask><path d="M7.989.057c.209.12.279.388.162.591L.81 13.363a.43.43 0 0 1-.593.155.428.428 0 0 1-.158-.589L7.399.215a.434.434 0 0 1 .59-.158Z" id="Fill-10" fill="url('#linearGradient-16')" mask="url('#mask-14')"/></g></g></g></svg>