<svg width="123.024" height="20.141" xmlns="http://www.w3.org/2000/svg"><g id="Symbols" stroke="none" stroke-width="1" fill="none" fill-rule="evenodd"><g id="Logo-/-Revveon---White" transform="translate(-2 -14)" fill="#FFF"><g id="Group-9" transform="translate(2 14)"><path d="M8.228 4.655a4.114 4.114 0 0 0-1.653-.36c-1.126 0-2.096.408-2.91 1.222-.815.815-1.222 1.785-1.222 2.91v11.534H0V8.428c0-1.294.341-2.474 1.024-3.54.683-1.066 1.575-1.862 2.677-2.389l.072-.036a6.635 6.635 0 0 1 2.802-.61c1.533 0 2.898.466 4.096 1.4L8.228 4.656Z" id="Fill-1"/><path d="M12.899 12.308c.287 1.533 1.042 2.808 2.263 3.826 1.222 1.018 2.623 1.527 4.204 1.527a6.497 6.497 0 0 0 3.234-.826 6.512 6.512 0 0 0 2.371-2.264l2.12 1.222a9.195 9.195 0 0 1-3.27 3.162 8.738 8.738 0 0 1-4.455 1.186 8.795 8.795 0 0 1-4.527-1.222 9.112 9.112 0 0 1-3.306-3.306 8.795 8.795 0 0 1-1.221-4.527c0-1.652.407-3.168 1.222-4.545a9.156 9.156 0 0 1 3.305-3.287 8.795 8.795 0 0 1 4.527-1.222c1.629 0 3.138.407 4.527 1.222A9.157 9.157 0 0 1 27.2 6.54c.814 1.377 1.221 2.893 1.221 4.545 0 .288-.024.695-.071 1.222h-15.45Zm6.467-7.833c-1.054 0-2.084.246-3.09.737-1.006.49-1.82 1.162-2.443 2.012-.623.85-.934 1.766-.934 2.748h12.935c0-.982-.312-1.898-.935-2.748a6.54 6.54 0 0 0-2.425-2.012 6.932 6.932 0 0 0-3.108-.737Z" id="Fill-2"/><path id="Fill-3" d="M46.278 2.068 39.199 19.96h-2.622L29.498 2.068h2.623l5.785 14.48 5.749-14.48z"/><path id="Fill-4" d="M65.931 2.068 58.853 19.96H56.23L49.152 2.068h2.623l5.785 14.48 5.748-14.48z"/><path d="M69.237 12.308c.287 1.533 1.042 2.808 2.263 3.826 1.222 1.018 2.623 1.527 4.204 1.527a6.497 6.497 0 0 0 3.234-.826 6.512 6.512 0 0 0 2.371-2.264l2.12 1.222a9.195 9.195 0 0 1-3.27 3.162 8.738 8.738 0 0 1-4.455 1.186 8.795 8.795 0 0 1-4.527-1.222 9.112 9.112 0 0 1-3.306-3.306 8.795 8.795 0 0 1-1.221-4.527c0-1.652.407-3.168 1.221-4.545a9.156 9.156 0 0 1 3.306-3.287 8.795 8.795 0 0 1 4.527-1.222c1.629 0 3.138.407 4.527 1.222a9.156 9.156 0 0 1 3.306 3.287c.814 1.377 1.221 2.893 1.221 4.545 0 .288-.024.695-.072 1.222h-15.45Zm6.467-7.833c-1.054 0-2.084.246-3.09.737-1.006.49-1.82 1.162-2.443 2.012-.623.85-.934 1.766-.934 2.748H82.17c0-.982-.31-1.898-.934-2.748a6.54 6.54 0 0 0-2.425-2.012 6.932 6.932 0 0 0-3.108-.737Z" id="Fill-5"/><path d="M115.874 1.996c1.293 0 2.485.317 3.575.952a7.202 7.202 0 0 1 2.605 2.587c.646 1.09.97 2.282.97 3.575v10.851h-2.48V9.111a4.46 4.46 0 0 0-.628-2.318 4.705 4.705 0 0 0-1.707-1.689 4.555 4.555 0 0 0-2.335-.629c-.839 0-1.617.21-2.336.629a4.72 4.72 0 0 0-1.707 1.689 4.46 4.46 0 0 0-.628 2.317v10.851h-2.444V2.463h2.444v1.581a5.97 5.97 0 0 1 2.102-1.527 6.394 6.394 0 0 1 2.569-.52Z" id="Fill-6"/><path d="M100.005 2.644c.319.141.632.303.94.484a9.307 9.307 0 0 1 3.341 3.341 8.852 8.852 0 0 1 1.24 4.581 8.787 8.787 0 0 1-1.24 4.545 9.165 9.165 0 0 1-3.341 3.324 8.958 8.958 0 0 1-4.581 1.222 8.89 8.89 0 0 1-4.545-1.222 9.028 9.028 0 0 1-3.324-3.324 8.89 8.89 0 0 1-1.222-4.545c0-1.652.408-3.18 1.222-4.58a9.167 9.167 0 0 1 3.525-3.458v2.95a6.736 6.736 0 0 0-1.405 1.711 6.6 6.6 0 0 0-.898 3.377c0 1.198.3 2.312.898 3.342a6.684 6.684 0 0 0 2.425 2.443 6.44 6.44 0 0 0 3.324.898c1.221 0 2.341-.3 3.36-.898a6.677 6.677 0 0 0 2.424-2.443 6.533 6.533 0 0 0 .899-3.342 6.6 6.6 0 0 0-.899-3.377 6.676 6.676 0 0 0-2.143-2.269v-2.76Z" id="Fill-7"/><path id="Fill-8" d="M95.014 10.979h1.996V0h-1.996z"/></g></g></g></svg>