<svg width="30" height="30" xmlns="http://www.w3.org/2000/svg" xmlns:xlink="http://www.w3.org/1999/xlink"><defs><linearGradient x1="51.7%" y1="445.835%" x2="51.7%" y2="-126.218%" id="linearGradient-3"><stop stop-color="#4E2890" offset="0%"/><stop stop-color="#934B91" offset="100%"/></linearGradient><linearGradient x1="51.7%" y1="445.835%" x2="51.7%" y2="-126.218%" id="linearGradient-4"><stop offset="0%"/><stop offset="100%"/></linearGradient><linearGradient x1="52.505%" y1="319.524%" x2="52.505%" y2="-252.241%" id="linearGradient-7"><stop stop-color="#4E2890" offset="0%"/><stop stop-color="#934B91" offset="100%"/></linearGradient><linearGradient x1="52.505%" y1="319.524%" x2="52.505%" y2="-252.241%" id="linearGradient-8"><stop offset="0%"/><stop offset="100%"/></linearGradient><linearGradient x1="51.287%" y1="572.053%" x2="51.287%" y2="0%" id="linearGradient-11"><stop stop-color="#4E2890" offset="0%"/><stop stop-color="#934B91" offset="100%"/></linearGradient><linearGradient x1="51.287%" y1="572.053%" x2="51.287%" y2="0%" id="linearGradient-12"><stop offset="0%"/><stop offset="100%"/></linearGradient><linearGradient x1="58.038%" y1="111.382%" x2="58.038%" y2="-319.633%" id="linearGradient-15"><stop stop-color="#4E2890" offset="0%"/><stop stop-color="#934B91" offset="100%"/></linearGradient><linearGradient x1="58.038%" y1="111.382%" x2="58.038%" y2="-319.633%" id="linearGradient-16"><stop offset="0%"/><stop offset="100%"/></linearGradient><linearGradient x1="88.6%" y1="542.281%" x2="88.6%" y2="-1362.022%" id="linearGradient-19"><stop stop-color="#4E2890" offset="0%"/><stop stop-color="#934B91" offset="100%"/></linearGradient><linearGradient x1="88.6%" y1="542.281%" x2="88.6%" y2="-1362.022%" id="linearGradient-20"><stop offset="0%"/><stop offset="100%"/></linearGradient><linearGradient x1="88.6%" y1="100%" x2="88.6%" y2="-1801.979%" id="linearGradient-23"><stop stop-color="#4E2890" offset="0%"/><stop stop-color="#934B91" offset="100%"/></linearGradient><linearGradient x1="88.6%" y1="100%" x2="88.6%" y2="-1801.979%" id="linearGradient-24"><stop offset="0%"/><stop offset="100%"/></linearGradient><path d="M3.429 4.507.819.667h21.067l-2.61 3.84H3.43Zm16.667.333 2.61-4.506c0-.187-.183-.334-.41-.334H.411C.185 0 0 .147 0 .334L2.61 4.84c0 .184.184.335.41.335h16.667c.226 0 .409-.15.409-.335Z" id="path-1"/><path d="M3.429 4.509.819.67h13.77L11.98 4.509H3.429Zm9.37.335L15.41.335c0-.184-.183-.335-.41-.335H.412C.185 0 0 .15 0 .335l2.61 4.51c0 .184.184.333.41.333h9.37c.227 0 .41-.15.41-.334Z" id="path-5"/><path d="M3.429 4.506.819.67h28.36L26.57 4.506H3.428Zm23.962.335L30 .335C30 .151 29.817 0 29.589 0H.41C.185 0 0 .15 0 .335l2.61 4.506c0 .183.184.334.41.334h23.96c.228 0 .41-.15.41-.333Z" id="path-9"/><path d="M2.397 6.869C1.077 6.869 0 5.88 0 4.662a.385.385 0 1 1 .772 0c0 .79.736 1.43 1.625 1.43.897 0 1.624-.64 1.624-1.43 0-.282-.054-.48-.18-.603-.26-.258-.87-.258-1.453-.252-.736.005-1.5.007-1.984-.473C.134 3.068 0 2.688 0 2.205 0 .988 1.077 0 2.397 0c1.328 0 2.405.988 2.405 2.205 0 .214-.18.388-.386.388a.394.394 0 0 1-.395-.388c0-.788-.727-1.43-1.624-1.43-.889 0-1.625.642-1.625 1.43 0 .272.063.462.18.579.25.254.852.253 1.436.249.745-.009 1.517-.009 2.001.478.27.272.413.66.413 1.152 0 1.217-1.077 2.205-2.405 2.205Z" id="path-13"/><path d="M.5 1.555a.385.385 0 0 1-.386-.387V.387a.385.385 0 1 1 .772 0v.78c0 .214-.17.388-.386.388Z" id="path-17"/><path d="M.5 1.556a.385.385 0 0 1-.386-.386V.388a.385.385 0 1 1 .772 0v.782c0 .213-.17.387-.386.387Z" id="path-21"/></defs><g id="Icon-/-App-/-Sales-Funnel---Colour" stroke="none" stroke-width="1" fill="none" fill-rule="evenodd"><g id="Group-19"><g id="Group-3" transform="translate(3.647 6.532)"><mask id="mask-2" fill="#fff"><use xlink:href="#path-1"/></mask><path d="M3.429 4.507.819.667h21.067l-2.61 3.84H3.43Zm16.667.333 2.61-4.506c0-.187-.183-.334-.41-.334H.411C.185 0 0 .147 0 .334L2.61 4.84c0 .184.184.335.41.335h16.667c.226 0 .409-.15.409-.335Z" id="Fill-1" fill="url('#linearGradient-4')" mask="url('#mask-2')"/></g><g id="Group-6" transform="translate(7.296 13.06)"><mask id="mask-6" fill="#fff"><use xlink:href="#path-5"/></mask><path d="M3.429 4.509.819.67h13.77L11.98 4.509H3.429Zm9.37.335L15.41.335c0-.184-.183-.335-.41-.335H.412C.185 0 0 .15 0 .335l2.61 4.51c0 .184.184.333.41.333h9.37c.227 0 .41-.15.41-.334Z" id="Fill-4" fill="url('#linearGradient-8')" mask="url('#mask-6')"/></g><g id="Group-9"><mask id="mask-10" fill="#fff"><use xlink:href="#path-9"/></mask><path d="M3.429 4.506.819.67h28.36L26.57 4.506H3.428Zm23.962.335L30 .335C30 .151 29.817 0 29.589 0H.41C.185 0 0 .15 0 .335l2.61 4.506c0 .183.184.334.41.334h23.96c.228 0 .41-.15.41-.333Z" id="Fill-7" fill="url('#linearGradient-12')" mask="url('#mask-10')"/></g><g id="Group-12" transform="translate(12.599 21.954)"><mask id="mask-14" fill="#fff"><use xlink:href="#path-13"/></mask><path d="M2.397 6.869C1.077 6.869 0 5.88 0 4.662a.385.385 0 1 1 .772 0c0 .79.736 1.43 1.625 1.43.897 0 1.624-.64 1.624-1.43 0-.282-.054-.48-.18-.603-.26-.258-.87-.258-1.453-.252-.736.005-1.5.007-1.984-.473C.134 3.068 0 2.688 0 2.205 0 .988 1.077 0 2.397 0c1.328 0 2.405.988 2.405 2.205 0 .214-.18.388-.386.388a.394.394 0 0 1-.395-.388c0-.788-.727-1.43-1.624-1.43-.889 0-1.625.642-1.625 1.43 0 .272.063.462.18.579.25.254.852.253 1.436.249.745-.009 1.517-.009 2.001.478.27.272.413.66.413 1.152 0 1.217-1.077 2.205-2.405 2.205Z" id="Fill-10" fill="url('#linearGradient-16')" mask="url('#mask-14')"/></g><g id="Group-15" transform="translate(14.5 21.174)"><mask id="mask-18" fill="#fff"><use xlink:href="#path-17"/></mask><path d="M.5 1.555a.385.385 0 0 1-.386-.387V.387a.385.385 0 1 1 .772 0v.78c0 .214-.17.388-.386.388Z" id="Fill-13" fill="url('#linearGradient-20')" mask="url('#mask-18')"/></g><g id="Group-18" transform="translate(14.5 28.048)"><mask id="mask-22" fill="#fff"><use xlink:href="#path-21"/></mask><path d="M.5 1.556a.385.385 0 0 1-.386-.386V.388a.385.385 0 1 1 .772 0v.782c0 .213-.17.387-.386.387Z" id="Fill-16" fill="url('#linearGradient-24')" mask="url('#mask-22')"/></g></g></g></svg>