<svg width="30" height="30" xmlns="http://www.w3.org/2000/svg" xmlns:xlink="http://www.w3.org/1999/xlink"><defs><linearGradient x1="50%" y1="0%" x2="50%" y2="119.589%" id="linearGradient-3"><stop stop-color="#4E2890" offset="0%"/><stop stop-color="#934B91" offset="100%"/></linearGradient><linearGradient x1="50%" y1="0%" x2="50%" y2="119.589%" id="linearGradient-4"><stop offset="0%"/><stop offset="100%"/></linearGradient><linearGradient x1="53.775%" y1="-443.291%" x2="53.775%" y2="67.343%" id="linearGradient-7"><stop stop-color="#4E2890" offset="0%"/><stop stop-color="#934B91" offset="100%"/></linearGradient><linearGradient x1="53.775%" y1="-443.291%" x2="53.775%" y2="67.343%" id="linearGradient-8"><stop offset="0%"/><stop offset="100%"/></linearGradient><linearGradient x1="492.423%" y1="-961.974%" x2="492.423%" y2="229.833%" id="linearGradient-11"><stop stop-color="#4E2890" offset="0%"/><stop stop-color="#934B91" offset="100%"/></linearGradient><linearGradient x1="492.423%" y1="-961.974%" x2="492.423%" y2="229.833%" id="linearGradient-12"><stop offset="0%"/><stop offset="100%"/></linearGradient><linearGradient x1="50%" y1="0%" x2="50%" y2="100.074%" id="linearGradient-15"><stop stop-color="#4E2890" offset="0%"/><stop stop-color="#934B91" offset="100%"/></linearGradient><linearGradient x1="50%" y1="0%" x2="50%" y2="100.074%" id="linearGradient-16"><stop offset="0%"/><stop offset="100%"/></linearGradient><linearGradient x1="49.993%" y1="-581.88%" x2="49.993%" y2="681.87%" id="linearGradient-19"><stop stop-color="#4E2890" offset="0%"/><stop stop-color="#934B91" offset="100%"/></linearGradient><linearGradient x1="49.993%" y1="-581.88%" x2="49.993%" y2="681.87%" id="linearGradient-20"><stop offset="0%"/><stop offset="100%"/></linearGradient><linearGradient x1="58.035%" y1="-60.131%" x2="58.035%" y2="160.131%" id="linearGradient-23"><stop stop-color="#4E2890" offset="0%"/><stop stop-color="#934B91" offset="100%"/></linearGradient><linearGradient x1="58.035%" y1="-60.131%" x2="58.035%" y2="160.131%" id="linearGradient-24"><stop offset="0%"/><stop offset="100%"/></linearGradient><path d="M.406 23.578A.414.414 0 0 1 0 23.175a.411.411 0 0 1 .387-.431c2.089-.094 5.592-.506 5.592-2.222v-1.819c-2.68-2.231-4.467-7.069-4.467-10.284C1.512 3.779 5.212 0 9.758 0c4.55 0 8.25 3.778 8.25 8.419 0 3.215-1.79 8.053-4.469 10.284v1.819c0 .544.339.984 1.035 1.34.2.104.28.357.179.563a.406.406 0 0 1-.546.178c-.981-.506-1.479-1.21-1.479-2.081v-2.025a.43.43 0 0 1 .16-.328c2.539-1.988 4.308-6.732 4.308-9.75 0-4.19-3.337-7.594-7.438-7.594-4.099 0-7.435 3.403-7.435 7.594 0 3.018 1.77 7.762 4.308 9.75a.43.43 0 0 1 .16.328v2.025c0 1.837-2.142 2.86-6.366 3.047-.008.01-.013.01-.019.01Z" id="path-1"/><path d="M19.533 5.522H.405A.412.412 0 0 1 0 5.1V.412A.41.41 0 0 1 .405 0C.629 0 .81.188.81.412v4.276h18.722c.224 0 .405.187.405.412a.413.413 0 0 1-.405.422Z" id="path-5"/><path d="M.405 2.366H.383a.414.414 0 0 1-.382-.44A2.055 2.055 0 0 1 1.712.002a.411.411 0 0 1 .46.347.422.422 0 0 1-.34.478A1.216 1.216 0 0 0 .81 1.972a.408.408 0 0 1-.404.394Z" id="path-9"/><path d="M6.184.834C3.704.834 1.558 2.55.968 5.006A5.509 5.509 0 0 0 .81 6.32c0 2.362 1.473 4.453 3.665 5.203.55.187 1.126.281 1.708.281 2.963 0 5.372-2.456 5.372-5.484S9.146.834 6.184.834Zm0 11.794a6.07 6.07 0 0 1-1.965-.319C1.696 11.447 0 9.038 0 6.32 0 5.803.06 5.297.179 4.8.861 1.978 3.329 0 6.184 0c3.409 0 6.183 2.84 6.183 6.319 0 3.478-2.774 6.31-6.183 6.31Z" id="path-13"/><path d="M5.215.912H.405A.411.411 0 0 1 0 .5C0 .275.182.088.406.088h4.81c.224 0 .406.187.406.412a.411.411 0 0 1-.407.412Z" id="path-17"/><path d="M.5 5.737a.411.411 0 0 1-.406-.412V.412a.405.405 0 1 1 .812 0v4.913a.41.41 0 0 1-.406.412Z" id="path-21"/></defs><g id="Icon-/-App-/-Recruitment---Colour" stroke="none" stroke-width="1" fill="none" fill-rule="evenodd"><g id="Group-19" transform="translate(1)"><g id="Group-3" transform="translate(1.718)"><mask id="mask-2" fill="#fff"><use xlink:href="#path-1"/></mask><path d="M.406 23.578A.414.414 0 0 1 0 23.175a.411.411 0 0 1 .387-.431c2.089-.094 5.592-.506 5.592-2.222v-1.819c-2.68-2.231-4.467-7.069-4.467-10.284C1.512 3.779 5.212 0 9.758 0c4.55 0 8.25 3.778 8.25 8.419 0 3.215-1.79 8.053-4.469 10.284v1.819c0 .544.339.984 1.035 1.34.2.104.28.357.179.563a.406.406 0 0 1-.546.178c-.981-.506-1.479-1.21-1.479-2.081v-2.025a.43.43 0 0 1 .16-.328c2.539-1.988 4.308-6.732 4.308-9.75 0-4.19-3.337-7.594-7.438-7.594-4.099 0-7.435 3.403-7.435 7.594 0 3.018 1.77 7.762 4.308 9.75a.43.43 0 0 1 .16.328v2.025c0 1.837-2.142 2.86-6.366 3.047-.008.01-.013.01-.019.01Z" id="Fill-1" fill="url('#linearGradient-4')" mask="url('#mask-2')"/></g><g id="Group-6" transform="translate(0 24.478)"><mask id="mask-6" fill="#fff"><use xlink:href="#path-5"/></mask><path d="M19.533 5.522H.405A.412.412 0 0 1 0 5.1V.412A.41.41 0 0 1 .405 0C.629 0 .81.188.81.412v4.276h18.722c.224 0 .405.187.405.412a.413.413 0 0 1-.405.422Z" id="Fill-4" fill="url('#linearGradient-8')" mask="url('#mask-6')"/></g><g id="Group-9" transform="translate(0 22.76)"><mask id="mask-10" fill="#fff"><use xlink:href="#path-9"/></mask><path d="M.405 2.366H.383a.414.414 0 0 1-.382-.44A2.055 2.055 0 0 1 1.712.002a.411.411 0 0 1 .46.347.422.422 0 0 1-.34.478A1.216 1.216 0 0 0 .81 1.972a.408.408 0 0 1-.404.394Z" id="Fill-7" fill="url('#linearGradient-12')" mask="url('#mask-10')"/></g><g id="Group-12" transform="translate(16.162 17.363)"><mask id="mask-14" fill="#fff"><use xlink:href="#path-13"/></mask><path d="M6.184.834C3.704.834 1.558 2.55.968 5.006A5.509 5.509 0 0 0 .81 6.32c0 2.362 1.473 4.453 3.665 5.203.55.187 1.126.281 1.708.281 2.963 0 5.372-2.456 5.372-5.484S9.146.834 6.184.834Zm0 11.794a6.07 6.07 0 0 1-1.965-.319C1.696 11.447 0 9.038 0 6.32 0 5.803.06 5.297.179 4.8.861 1.978 3.329 0 6.184 0c3.409 0 6.183 2.84 6.183 6.319 0 3.478-2.774 6.31-6.183 6.31Z" id="Fill-10" fill="url('#linearGradient-16')" mask="url('#mask-14')"/></g><g id="Group-15" transform="translate(19.535 23.181)"><mask id="mask-18" fill="#fff"><use xlink:href="#path-17"/></mask><path d="M5.215.912H.405A.411.411 0 0 1 0 .5C0 .275.182.088.406.088h4.81c.224 0 .406.187.406.412a.411.411 0 0 1-.407.412Z" id="Fill-13" fill="url('#linearGradient-20')" mask="url('#mask-18')"/></g><g id="Group-18" transform="translate(21.766 20.813)"><mask id="mask-22" fill="#fff"><use xlink:href="#path-21"/></mask><path d="M.5 5.737a.411.411 0 0 1-.406-.412V.412a.405.405 0 1 1 .812 0v4.913a.41.41 0 0 1-.406.412Z" id="Fill-16" fill="url('#linearGradient-24')" mask="url('#mask-22')"/></g></g></g></svg>