<svg width="30" height="30" xmlns="http://www.w3.org/2000/svg" xmlns:xlink="http://www.w3.org/1999/xlink"><defs><linearGradient x1="50%" y1="-36.969%" x2="50%" y2="100%" id="linearGradient-3"><stop stop-color="#4E2890" offset="0%"/><stop stop-color="#934B91" offset="100%"/></linearGradient><linearGradient x1="50%" y1="-36.969%" x2="50%" y2="100%" id="linearGradient-4"><stop offset="0%"/><stop offset="100%"/></linearGradient><linearGradient x1="49.997%" y1="53.489%" x2="49.997%" y2="219.856%" id="linearGradient-7"><stop stop-color="#4E2890" offset="0%"/><stop stop-color="#934B91" offset="100%"/></linearGradient><linearGradient x1="49.997%" y1="53.489%" x2="49.997%" y2="219.856%" id="linearGradient-8"><stop offset="0%"/><stop offset="100%"/></linearGradient><linearGradient x1="41.415%" y1="-42.223%" x2="41.415%" y2="100%" id="linearGradient-11"><stop stop-color="#4E2890" offset="0%"/><stop stop-color="#934B91" offset="100%"/></linearGradient><linearGradient x1="41.415%" y1="-42.223%" x2="41.415%" y2="100%" id="linearGradient-12"><stop offset="0%"/><stop offset="100%"/></linearGradient><linearGradient x1="49.112%" y1="50.001%" x2="49.112%" y2="222.056%" id="linearGradient-15"><stop stop-color="#4E2890" offset="0%"/><stop stop-color="#934B91" offset="100%"/></linearGradient><linearGradient x1="49.112%" y1="50.001%" x2="49.112%" y2="222.056%" id="linearGradient-16"><stop offset="0%"/><stop offset="100%"/></linearGradient><linearGradient x1="61.041%" y1="-23.186%" x2="60.561%" y2="90.292%" id="linearGradient-19"><stop stop-color="#4E2890" offset="0%"/><stop stop-color="#934B91" offset="100%"/></linearGradient><linearGradient x1="61.041%" y1="-23.186%" x2="60.561%" y2="90.292%" id="linearGradient-20"><stop offset="0%"/><stop offset="100%"/></linearGradient><linearGradient x1="53.639%" y1="51.701%" x2="53.065%" y2="222.056%" id="linearGradient-23"><stop stop-color="#4E2890" offset="0%"/><stop stop-color="#934B91" offset="100%"/></linearGradient><linearGradient x1="53.639%" y1="51.701%" x2="53.065%" y2="222.056%" id="linearGradient-24"><stop offset="0%"/><stop offset="100%"/></linearGradient><path d="M6.621 9.55C3.384 9.55.652 5.71.652 3.3.652 1.799 1.66.984 3.91.67c.802.786 1.736 1.2 2.711 1.2.975 0 1.91-.414 2.71-1.2C11.584.984 12.59 1.798 12.59 3.3c0 2.411-2.732 6.252-5.969 6.252ZM9.255.003A.33.33 0 0 0 8.978.1c-.7.732-1.516 1.118-2.357 1.118-.84 0-1.656-.386-2.357-1.118a.33.33 0 0 0-.277-.098C1.304.34 0 1.418 0 3.3c0 1.399.757 3.126 1.975 4.507 1.344 1.523 3.037 2.397 4.646 2.397 3.655 0 6.621-4.178 6.621-6.904 0-1.881-1.304-2.96-3.987-3.297Z" id="path-1"/><path d="M3.716.652c1.525 0 3.063.909 3.063 2.938 0 1.453-.784 3.034-1.865 3.76-.787.528-1.61.528-2.397 0C1.437 6.624.652 5.043.652 3.59.652 1.56 2.191.652 3.716.652Zm-1.563 7.24c.504.337 1.029.508 1.563.508.533 0 1.059-.171 1.562-.509 1.248-.837 2.154-2.646 2.154-4.3C7.432 1.475 5.903 0 3.716 0 1.528 0 0 1.476 0 3.59c0 1.654.906 3.464 2.154 4.301Z" id="path-5"/><path d="M5.778.002A.33.33 0 0 0 5.502.1c-.525.548-1.134.838-1.76.838-.625 0-1.234-.29-1.759-.838a.326.326 0 1 0-.47.452c.65.679 1.422 1.038 2.23 1.038.759 0 1.486-.317 2.11-.92 1.662.24 2.406.842 2.406 1.943 0 1.826-2.067 4.734-4.516 4.734-1.086 0-2.242-.613-3.17-1.682a.327.327 0 0 0-.493.428c1.053 1.211 2.388 1.906 3.663 1.906C6.596 8 8.91 4.74 8.91 2.613 8.911.397 6.553.1 5.778.003Z" id="path-9"/><path d="M5.215 2.838c0 1.076-.603 2.293-1.402 2.829-.578.389-1.18.389-1.76 0-.798-.536-1.4-1.753-1.4-2.83 0-1.509 1.145-2.185 2.28-2.185 1.136 0 2.282.676 2.282 2.186ZM0 2.838c0 1.295.71 2.713 1.69 3.37.399.268.817.404 1.244.404.426 0 .844-.136 1.243-.404.98-.657 1.69-2.075 1.69-3.37C5.867 1.167 4.661 0 2.934 0 1.206 0 0 1.167 0 2.838Z" id="path-13"/><path d="M5.168 8c1.274 0 2.61-.696 3.663-1.907a.326.326 0 0 0-.492-.428c-.93 1.069-2.085 1.682-3.17 1.682-2.45 0-4.517-2.908-4.517-4.734 0-1.101.743-1.704 2.405-1.943.626.603 1.352.92 2.111.92.808 0 1.58-.36 2.23-1.038A.326.326 0 0 0 6.928.1c-.526.548-1.134.837-1.76.837C4.542.937 3.934.647 3.41.1a.33.33 0 0 0-.276-.098C2.358.1 0 .396 0 2.612 0 4.74 2.315 8 5.168 8Z" id="path-17"/><path d="M2.933.652c1.136 0 2.282.676 2.282 2.186 0 1.076-.603 2.293-1.401 2.829-.58.389-1.182.389-1.76 0-.8-.536-1.402-1.753-1.402-2.83C.652 1.329 1.798.653 2.933.653ZM1.69 6.208c.399.268.817.404 1.244.404.426 0 .844-.136 1.243-.404.98-.657 1.69-2.075 1.69-3.37C5.867 1.167 4.66 0 2.934 0 1.206 0 0 1.167 0 2.838c0 1.295.71 2.713 1.69 3.37Z" id="path-21"/></defs><g id="Icon-/-App-/-Communities---White" stroke="none" stroke-width="1" fill="none" fill-rule="evenodd"><g id="Group-19" transform="translate(0 6)"><g id="Group-3" transform="translate(8.379 8.265)"><mask id="mask-2" fill="#fff"><use xlink:href="#path-1"/></mask><path d="M6.621 9.55C3.384 9.55.652 5.71.652 3.3.652 1.799 1.66.984 3.91.67c.802.786 1.736 1.2 2.711 1.2.975 0 1.91-.414 2.71-1.2C11.584.984 12.59 1.798 12.59 3.3c0 2.411-2.732 6.252-5.969 6.252ZM9.255.003A.33.33 0 0 0 8.978.1c-.7.732-1.516 1.118-2.357 1.118-.84 0-1.656-.386-2.357-1.118a.33.33 0 0 0-.277-.098C1.304.34 0 1.418 0 3.3c0 1.399.757 3.126 1.975 4.507 1.344 1.523 3.037 2.397 4.646 2.397 3.655 0 6.621-4.178 6.621-6.904 0-1.881-1.304-2.96-3.987-3.297Z" id="Fill-1" fill="url('#linearGradient-4')" mask="url('#mask-2')"/></g><g id="Group-6" transform="translate(11.284)"><mask id="mask-6" fill="#fff"><use xlink:href="#path-5"/></mask><path d="M3.716.652c1.525 0 3.063.909 3.063 2.938 0 1.453-.784 3.034-1.865 3.76-.787.528-1.61.528-2.397 0C1.437 6.624.652 5.043.652 3.59.652 1.56 2.191.652 3.716.652Zm-1.563 7.24c.504.337 1.029.508 1.563.508.533 0 1.059-.171 1.562-.509 1.248-.837 2.154-2.646 2.154-4.3C7.432 1.475 5.903 0 3.716 0 1.528 0 0 1.476 0 3.59c0 1.654.906 3.464 2.154 4.301Z" id="Fill-4" fill="url('#linearGradient-8')" mask="url('#mask-6')"/></g><g id="Group-9" transform="translate(21.089 10.469)"><mask id="mask-10" fill="#fff"><use xlink:href="#path-9"/></mask><path d="M5.778.002A.33.33 0 0 0 5.502.1c-.525.548-1.134.838-1.76.838-.625 0-1.234-.29-1.759-.838a.326.326 0 1 0-.47.452c.65.679 1.422 1.038 2.23 1.038.759 0 1.486-.317 2.11-.92 1.662.24 2.406.842 2.406 1.943 0 1.826-2.067 4.734-4.516 4.734-1.086 0-2.242-.613-3.17-1.682a.327.327 0 0 0-.493.428c1.053 1.211 2.388 1.906 3.663 1.906C6.596 8 8.91 4.74 8.91 2.613 8.911.397 6.553.1 5.778.003Z" id="Fill-7" fill="url('#linearGradient-12')" mask="url('#mask-10')"/></g><g id="Group-12" transform="translate(21.898 3.785)"><mask id="mask-14" fill="#fff"><use xlink:href="#path-13"/></mask><path d="M5.215 2.838c0 1.076-.603 2.293-1.402 2.829-.578.389-1.18.389-1.76 0-.798-.536-1.4-1.753-1.4-2.83 0-1.509 1.145-2.185 2.28-2.185 1.136 0 2.282.676 2.282 2.186ZM0 2.838c0 1.295.71 2.713 1.69 3.37.399.268.817.404 1.244.404.426 0 .844-.136 1.243-.404.98-.657 1.69-2.075 1.69-3.37C5.867 1.167 4.661 0 2.934 0 1.206 0 0 1.167 0 2.838Z" id="Fill-10" fill="url('#linearGradient-16')" mask="url('#mask-14')"/></g><g id="Group-15" transform="translate(0 10.469)"><mask id="mask-18" fill="#fff"><use xlink:href="#path-17"/></mask><path d="M5.168 8c1.274 0 2.61-.696 3.663-1.907a.326.326 0 0 0-.492-.428c-.93 1.069-2.085 1.682-3.17 1.682-2.45 0-4.517-2.908-4.517-4.734 0-1.101.743-1.704 2.405-1.943.626.603 1.352.92 2.111.92.808 0 1.58-.36 2.23-1.038A.326.326 0 0 0 6.928.1c-.526.548-1.134.837-1.76.837C4.542.937 3.934.647 3.41.1a.33.33 0 0 0-.276-.098C2.358.1 0 .396 0 2.612 0 4.74 2.315 8 5.168 8Z" id="Fill-13" fill="url('#linearGradient-20')" mask="url('#mask-18')"/></g><g id="Group-18" transform="translate(2.235 3.785)"><mask id="mask-22" fill="#fff"><use xlink:href="#path-21"/></mask><path d="M2.933.652c1.136 0 2.282.676 2.282 2.186 0 1.076-.603 2.293-1.401 2.829-.58.389-1.182.389-1.76 0-.8-.536-1.402-1.753-1.402-2.83C.652 1.329 1.798.653 2.933.653ZM1.69 6.208c.399.268.817.404 1.244.404.426 0 .844-.136 1.243-.404.98-.657 1.69-2.075 1.69-3.37C5.867 1.167 4.66 0 2.934 0 1.206 0 0 1.167 0 2.838c0 1.295.71 2.713 1.69 3.37Z" id="Fill-16" fill="url('#linearGradient-24')" mask="url('#mask-22')"/></g></g></g></svg>